<svg width="80" height="80" viewBox="0 0 80 80" fill="none" xmlns="http://www.w3.org/2000/svg">
<path d="M40 77C38.8 77 37.6493 76.7796 36.548 76.3389C35.4467 75.8982 34.464 75.2399 33.6 74.3639L6.80001 47.0903C4.46668 44.7245 2.74934 42.0208 1.64801 38.9792C0.546676 35.9375 -0.002657 32.7606 9.66184e-06 29.4486C9.66184e-06 22.4866 2.23334 16.5046 6.70001 11.5028C11.1667 6.50092 16.7333 4 23.4 4C26.6 4 29.6173 4.64213 32.452 5.92639C35.2867 7.21065 37.8027 9.00185 40 11.3C42.1333 9.00185 44.6173 7.21065 47.452 5.92639C50.2867 4.64213 53.3027 4 56.5 4C63.1667 4 68.7507 6.50092 73.252 11.5028C77.7533 16.5046 80.0027 22.4528 80 29.3472C80 32.6593 79.4333 35.8361 78.3 38.8778C77.1667 41.9194 75.4667 44.6231 73.2 46.9889L46.3 74.3639C45.4333 75.2426 44.4667 75.9023 43.4 76.343C42.3333 76.7837 41.2 77.0027 40 77ZM44 24.2778C44.6667 24.2778 45.3 24.4468 45.9 24.7847C46.5 25.1227 46.9667 25.562 47.3 26.1028L54.1 36.4444H70.7C71.1667 35.2954 71.516 34.1287 71.748 32.9445C71.98 31.7603 72.0973 30.5612 72.1 29.3472C71.9667 24.6833 70.4333 20.6778 67.5 17.3306C64.5667 13.9834 60.9 12.3112 56.5 12.3139C54.4333 12.3139 52.4493 12.7194 50.548 13.5306C48.6467 14.3417 46.9973 15.5245 45.6 17.0792L42.9 20.0194C42.5667 20.425 42.1333 20.7467 41.6 20.9847C41.0667 21.2226 40.5333 21.3402 40 21.3375C39.4667 21.3375 38.9333 21.2199 38.4 20.9847C37.8667 20.7494 37.4 20.4277 37 20.0194L34.3 17.0792C32.9 15.5245 31.2667 14.3079 29.4 13.4292C27.5333 12.5505 25.5333 12.1111 23.4 12.1111C19 12.1111 15.3333 13.8185 12.4 17.2333C9.46667 20.6481 8.00001 24.686 8.00001 29.3472C8.00001 30.5639 8.10001 31.7643 8.30001 32.9485C8.50001 34.1328 8.83334 35.2981 9.30001 36.4444H28C28.6667 36.4444 29.3 36.6134 29.9 36.9514C30.5 37.2893 30.9667 37.7287 31.3 38.2694L34.8 43.5417L40.2 27.1167C40.4667 26.3055 40.9493 25.6296 41.648 25.0889C42.3467 24.5481 43.1307 24.2778 44 24.2778ZM45.2 37.4583L39.8 53.8833C39.5333 54.6944 39.0333 55.3704 38.3 55.9111C37.5667 56.4518 36.7667 56.7222 35.9 56.7222C35.2333 56.7222 34.6 56.5532 34 56.2153C33.4 55.8773 32.9333 55.4379 32.6 54.8972L25.8 44.5555H15.6L39.3 68.5847C39.4333 68.7199 39.5507 68.8051 39.652 68.8402C39.7533 68.8754 39.8693 68.8916 40 68.8889C40.1333 68.8889 40.2507 68.8713 40.352 68.8361C40.4533 68.801 40.5693 68.7172 40.7 68.5847L64.3 44.5555H52C51.3333 44.5555 50.7 44.3866 50.1 44.0486C49.5 43.7106 49 43.2713 48.6 42.7305L45.2 37.4583Z" fill="#313131"/>
</svg>
