<svg width="80" height="80" viewBox="0 0 80 80" fill="none" xmlns="http://www.w3.org/2000/svg">
<path d="M39.5 76C54.0485 76 66 64.4163 66 49.5489C66 45.8995 65.8145 41.9875 63.8005 35.9063C61.7865 29.8252 61.3819 29.0406 59.2531 25.2847C58.3433 32.9474 53.4761 36.1424 52.2394 37.0973C52.2394 36.1033 49.2962 25.1214 44.8318 18.5486C40.4487 12.1 34.488 7.87017 30.9935 5C30.9935 10.4492 29.4689 18.5504 27.2835 22.679C25.0999 26.8059 24.69 26.9567 21.9605 30.0275C19.2328 33.0982 17.9802 34.0479 15.6977 37.7754C13.4169 41.5029 13 46.4675 13 50.1169C13 64.9844 24.9515 76 39.5 76Z" stroke="#313131" stroke-width="6.63764" stroke-linejoin="round"/>
</svg>
