<?xml version="1.0" encoding="UTF-8"?><svg id="Layer_2" xmlns="http://www.w3.org/2000/svg" viewBox="0 0 120 120"><g id="Layer_1-2"><path d="m60,0C26.86,0,0,26.86,0,60s26.86,60,60,60,60-26.86,60-60S93.14,0,60,0Zm28.24,76.68c-.37,4.95-2.13,9.38-4.9,13.42-2.58,3.77-5.92,6.76-9.98,8.84-1.32.68-2.87,1.04-4.35,1.25-2.79.39-5.6.4-8.42.4-4,0-7.75-.08-11.55-.94-2.26-.51-4.18-1.69-5.96-3.08-1.46-1.14-2.86-2.4-4.08-3.8-1.36-1.56-2.59-3.26-3.68-5.02-1.25-2.01-2.19-4.21-2.72-6.53-.42-1.85-.7-3.74-.89-5.63-.14-1.41-.08-2.84-.02-4.25.1-2.31.56-4.58,1.42-6.72.86-2.13,1.89-4.19,2.96-6.22.52-.99,1.25-1.88,1.97-2.73.54-.64.53-1.2.14-1.87-.95-1.66-1.92-3.3-2.8-4.99-1.41-2.7-2.12-5.61-2.53-8.61-.42-3.01-.27-5.95.76-8.83.72-2.01,1.84-3.76,3.24-5.38,2.84-3.28,6.56-4.84,10.68-5.67,3.27-.65,6.56-1.05,9.9-1.23,3.18-.18,6.33-.09,9.47.35,2.83.4,5.68.79,8.43,1.51,5.29,1.37,9.12,4.57,11.31,9.66.85,1.97,1.25,3.99,1.3,6.13.12,5.54-1.57,10.54-4.45,15.19-.36.58-.74,1.15-1.08,1.74-.6,1.02-.56,2.03.15,2.94,2.58,3.32,4.27,7.06,5.21,11.15.67,2.95.7,5.92.48,8.93Zm-10.67-38.74c-.24,1.82-.76,3.62-1.28,5.4-.52,1.79-1.67,3.25-2.72,4.75-.34.48-.71.35-1.16.17-1.87-.72-3.72-1.51-5.64-2.06-2.85-.83-5.8-1.05-8.75-.83-3.59.26-7.03,1.2-10.3,2.73-.42.2-.59.2-.89-.18-2.07-2.6-3.22-5.56-3.65-8.83-.2-1.54-.31-3.06.34-4.55.83-1.89,2.29-3.12,4.22-3.58,2.37-.56,4.8-.89,7.22-1.22,1.77-.23,3.57-.29,5.36-.43,3.32-.03,6.57.47,9.8,1.03,1.24.22,2.49.53,3.67.98,2.83,1.08,4.16,3.79,3.79,6.62Z"/></g></svg>